<svg id="Ebene_1" data-name="Ebene 1" xmlns="http://www.w3.org/2000/svg" viewBox="0 0 800 800"><defs><style>.cls-1{fill:#cdcccc;}.cls-2{fill:#fff;}</style></defs><rect class="cls-1" x="0.5" y="0.5" width="799" height="799"/><path class="cls-2" d="M799,1V799H1V1H799m1-1H0V800H800V0Z"/><circle class="cls-2" cx="400.5" cy="313.5" r="173"/><path class="cls-2" d="M400.5,141a172.49,172.49,0,1,1-122,50.52A171.39,171.39,0,0,1,400.5,141m0-1A173.5,173.5,0,1,0,574,313.5,173.5,173.5,0,0,0,400.5,140Z"/><path class="cls-2" d="M400,1150.5c-94.44,0-183.21-32.41-250-91.26S46.5,922.19,46.5,839,83.26,677.59,150,618.76,305.56,527.5,400,527.5s183.21,32.41,250,91.26S753.5,755.81,753.5,839,716.74,1000.41,650,1059.24,494.44,1150.5,400,1150.5Z"/><path class="cls-2" d="M400,528a392,392,0,0,1,137.44,24.46c42,15.67,79.8,38.1,112.21,66.67S707.51,681,725.28,718a278,278,0,0,1,0,242c-17.77,37-43.22,70.29-75.63,98.86s-70.17,51-112.21,66.67a398.37,398.37,0,0,1-274.88,0c-42-15.67-79.8-38.1-112.21-66.67S92.49,997,74.72,960a278,278,0,0,1,0-242c17.77-37,43.22-70.29,75.63-98.86s70.17-51,112.21-66.67A392,392,0,0,1,400,528m0-1C204.49,527,46,666.69,46,839s158.49,312,354,312,354-139.69,354-312S595.51,527,400,527Z"/></svg>